<svg width="96" height="80" viewBox="0 0 96 80" fill="none" xmlns="http://www.w3.org/2000/svg">
<path d="M46.613 60.1511L40.4328 49.4409H28.9756L46.6089 80.0001L64.242 49.4409H52.7934L46.613 60.1511Z" fill="#C90F91"/>
<path d="M17.5881 9.84846H75.638L71.4693 17.0717H82.9181L92.769 0H0.44873L10.2996 17.0717H21.7568L17.5881 9.84846Z" fill="#C90F91"/>
<path d="M92.1928 21.188H70.0742H69.0737V22.189V26.9559V27.9592H70.0742H77.4786V44.3211V45.3244H78.4791H83.7877H84.7882V44.3211V27.9592H92.1928H93.1932V26.9559V22.189V21.188H92.1928Z" fill="#C90F91"/>
<path d="M50.7861 21.188H49.7856V22.189V26.9559V44.3211V45.3244H50.7861H56.0945H57.0952V44.3211V37.7654H65.0442H66.0446V36.7621V31.9953V30.9942H65.0442H57.0952V27.9592H67.461H68.4615V26.9559V22.189V21.188H67.461H50.7861Z" fill="#C90F91"/>
<path d="M41.8175 21.188H40.8255V33.0513C40.8255 36.0609 38.7147 38.418 36.0066 38.418C33.2984 38.418 31.1519 36.0609 31.1519 33.0513V21.188H23.7432V33.0513C23.7432 36.7009 25.0096 40.0019 27.2997 42.3442C29.5456 44.638 32.6378 45.9009 36.0066 45.9009C39.3753 45.9009 42.4444 44.6337 44.686 42.3421C46.9762 39.9978 48.2384 36.6967 48.2384 33.0491V21.188H41.8175Z" fill="#C90F91"/>
<path d="M11.5069 21.188H0.0244141V45.3244H11.5069C14.7087 45.3159 17.7765 44.0371 20.0372 41.7683C22.2978 39.4996 23.5669 36.426 23.5657 33.2223C23.5657 26.2484 18.4935 21.188 11.5069 21.188ZM11.9966 38.0167H7.33396V28.5126H12.0156C14.3543 28.5126 16.2561 30.6245 16.2561 33.2307C16.2561 36.1159 14.0947 37.9217 11.9966 38.0167Z" fill="#C90F91"/>
<path d="M49.2468 60.1511L43.0664 49.4409H31.6094L49.2425 80.0001L66.8758 49.4409H55.427L49.2468 60.1511Z" fill="#5CF5FF"/>
<path d="M20.222 9.84846H78.2719L74.1032 17.0717H85.552L95.4027 0H3.08252L12.9334 17.0717H24.3907L20.222 9.84846Z" fill="#5CF5FF"/>
<path d="M94.8267 21.188H72.708H71.7075V22.189V26.9559V27.9592H72.708H80.1126V44.3211V45.3244H81.1131H86.4217H87.4221V44.3211V27.9592H94.8267H95.8272V26.9559V22.189V21.188H94.8267Z" fill="#5CF5FF"/>
<path d="M53.4199 21.188H52.4194V22.189V26.9559V44.3211V45.3244H53.4199H58.7285H59.729V44.3211V37.7654H67.6781H68.6786V36.7621V31.9953V30.9942H67.6781H59.729V27.9592H70.095H71.0955V26.9559V22.189V21.188H70.095H53.4199Z" fill="#5CF5FF"/>
<path d="M44.451 21.188H43.459V33.0513C43.459 36.0609 41.3481 38.418 38.6401 38.418C35.9319 38.418 33.7854 36.0609 33.7854 33.0513V21.188H26.3765V33.0513C26.3765 36.7009 27.6429 40.0019 29.9332 42.3442C32.1791 44.638 35.2713 45.9009 38.6401 45.9009C42.0088 45.9009 45.0779 44.6337 47.3195 42.3421C49.6097 39.9978 50.8719 36.6967 50.8719 33.0491V21.188H44.451Z" fill="#5CF5FF"/>
<path d="M14.1407 21.188H2.6582V45.3244H14.1407C17.3425 45.3159 20.4103 44.0371 22.671 41.7683C24.9316 39.4996 26.2005 36.426 26.1994 33.2223C26.1994 26.2484 21.1273 21.188 14.1407 21.188ZM14.6304 38.0167H9.96775V28.5126H14.6494C16.9881 28.5126 18.8898 30.6245 18.8898 33.2307C18.8898 36.1159 16.7285 37.9217 14.6304 38.0167Z" fill="#5CF5FF"/>
<path d="M47.9299 60.1511L41.7497 49.4409H30.2925L47.9258 80.0001L65.5591 49.4409H54.1103L47.9299 60.1511Z" fill="white"/>
<path d="M18.905 9.84846H76.9549L72.7862 17.0717H84.2349L94.0859 0H1.76562L11.6165 17.0717H23.0737L18.905 9.84846Z" fill="white"/>
<path d="M93.5097 21.188H71.3911H70.3906V22.189V26.9559V27.9592H71.3911H78.7957V44.3211V45.3244H79.7962H85.1046H86.1052V44.3211V27.9592H93.5097H94.5101V26.9559V22.189V21.188H93.5097Z" fill="white"/>
<path d="M52.103 21.188H51.1025V22.189V26.9559V44.3211V45.3244H52.103H57.4116H58.4121V44.3211V37.7654H66.3613H67.3617V36.7621V31.9953V30.9942H66.3613H58.4121V27.9592H68.7779H69.7784V26.9559V22.189V21.188H68.7779H52.103Z" fill="white"/>
<path d="M43.1344 21.188H42.1424V33.0513C42.1424 36.0609 40.0317 38.418 37.3235 38.418C34.6155 38.418 32.4688 36.0609 32.4688 33.0513V21.188H25.0601V33.0513C25.0601 36.7009 26.3265 40.0019 28.6168 42.3442C30.8625 44.638 33.9549 45.9009 37.3235 45.9009C40.6924 45.9009 43.7613 44.6337 46.0031 42.3421C48.2931 39.9978 49.5555 36.6967 49.5555 33.0491V21.188H43.1344Z" fill="white"/>
<path d="M12.8238 21.188H1.34131V45.3244H12.8238C16.0256 45.3159 19.0935 44.0371 21.354 41.7683C23.6148 39.4996 24.8837 36.426 24.8826 33.2223C24.8826 26.2484 19.8105 21.188 12.8238 21.188ZM13.3135 38.0167H8.65086V28.5126H13.3325C15.6712 28.5126 17.573 30.6245 17.573 33.2307C17.573 36.1159 15.4116 37.9217 13.3135 38.0167Z" fill="white"/>
</svg>
