<svg width="114" height="129" viewBox="0 0 114 129" fill="none" xmlns="http://www.w3.org/2000/svg">
<path d="M57.3841 0.09375C38.6576 0.09375 23.4224 15.329 23.4224 34.0555C23.4224 52.782 38.6576 68.0173 57.3841 68.0173C76.1106 68.0173 91.3459 52.782 91.3459 34.0555C91.3459 15.329 76.1106 0.09375 57.3841 0.09375Z" fill="#172144"/>
<path d="M99.6392 90.2045C90.3412 80.7636 78.0151 75.5645 64.9312 75.5645H49.8371C36.7536 75.5645 24.4272 80.7636 15.1292 90.2045C5.87677 99.5991 0.78125 112 0.78125 125.123C0.78125 127.207 2.47078 128.897 4.55478 128.897H110.214C112.298 128.897 113.987 127.207 113.987 125.123C113.987 112 108.892 99.5991 99.6392 90.2045Z" fill="#172144"/>
</svg>
